PathFileType	4	(X/Y/Z)	C:/Users/beibeiliu/ov580/test_trc/User2\sequence.34_training_dense_right.trc
DataRate	CameraRate	NumFrames	NumMarkers	Units	OrigDataRate	OrigDataStartFrame	OrigNumFrames
120	120	10	19	mm	120	123	326
Frame#	Time	ThumbCMC			ThumbMCP			ThumbIP			ThumbTip			IndexMCP			IndexPIP			IndexTip			MiddleMCP			MiddlePIP			MiddleTip			RingMCP			RingPIP			RingTip			PinkyMCP			PinkyPIP			PinkyTip			BackHand1			BackHand2			BackHand3	
		X0	Y0	Z0	X1	Y1	Z1	X2	Y2	Z2	X3	Y3	Z3	X4	Y4	Z4	X5	Y5	Z5	X6	Y6	Z6	X7	Y7	Z7	X8	Y8	Z8	X9	Y9	Z9	X10	Y10	Z10	X11	Y11	Z11	X12	Y12	Z12	X13	Y13	Z13	X14	Y14	Z14	X15	Y15	Z15	X16	Y16	Z16	X17	Y17	Z17	X18	Y18	Z18	
122	1.01667	97.0425	18.9843	67.8773	77.1702	33.358	45.0841	54.9838	26.8039	17.7191	38.8384	9.873	2.34124	57.6756	-10.5322	-0.286595	28.7914	-6.20279	14.5858	43.1552	2.31171	42.1953	53.2531	-31.6067	6.80922	24.0544	-25.5225	27.2469	49.9111	-12.0893	57.7597	41.7085	-49.2279	22.1914	25.2314	-34.6455	45.367	55.8338	-25.7199	64.3602	43.6488	-58.1636	36.2645	29.3787	-42.8517	56.5844	57.8356	-36.4729	77.6936	103.063	-53.2213	45.2968	120.447	-48.0982	81.0934	117.979	-12.3925	56.086	
123	1.025	99.3824	17.7649	70.9185	81.3363	32.1008	41.8395	61.4143	26.7262	18.1558	41.4151	12.8756	-2.27944	60.6905	-11.0366	-1.00783	30.4534	-6.81245	10.3129	49.2338	0.355547	44.1258	52.8115	-33.6234	6.46813	25.1315	-23.7757	27.5407	48.8782	-12.1695	55.8961	41.9252	-49.0094	19.7676	26.3871	-34.7603	42.5712	54.2893	-26.9894	61.9532	46.5683	-64.8892	35.7182	30.2066	-44.1392	60.2409	56.1297	-35.7442	77.4193	104.325	-54.6376	47.1842	122.521	-47.8631	79.4485	117.298	-14.2298	56.5569	
124	1.03333	99.3777	13.7909	69.7681	85.785	29.9294	44.9963	63.6579	26.7655	15.3361	46.9992	8.67875	0.964992	60.2024	-12.7269	-1.79187	32.328	-8.86874	10.872	47.6821	1.27721	41.0338	52.0668	-31.2439	3.49932	25.479	-27.8311	23.6051	50.2777	-15.3184	56.4555	44.6038	-52.0831	20.6578	25.8372	-38.8731	41.8156	56.3025	-26.3771	60.3738	43.9609	-65.5171	35.7635	30.6005	-45.4392	58.5948	55.2962	-35.8785	73.4455	103.595	-52.7197	46.8138	122.845	-45.2212	79.4767	117.92	-13.8251	55.6419	
125	1.04167	101.885	14.2604	70.507	87.0882	30.5671	42.0096	66.6682	27.4454	15.8698	49.6913	7.21005	-0.687434	64.4783	-13.826	-0.395039	33.1541	-8.82376	7.33625	48.5521	0.509088	41.1666	55.0584	-36.5244	5.1037	25.0345	-23.1043	24.7358	51.9917	-15.7261	55.964	45.4848	-49.7291	18.9342	26.7405	-38.8875	43.3582	53.5029	-27.1807	59.6439	49.2946	-63.5442	35.8114	29.4872	-46.8616	53.2094	52.9168	-35.8996	72.5481	105.755	-56.9805	47.0883	121.229	-49.1185	79.0533	117.558	-15.7958	54.874	
126	1.05	101.318	13.1852	69.5319	89.0774	29.9633	44.1005	68.0555	28.1826	14.2747	50.6692	8.2841	3.81078	64.0887	-13.1053	-0.582128	32.0593	-12.331	11.0906	46.5047	-3.95689	42.8024	52.2915	-37.4609	4.57116	24.8089	-27.3982	25.3959	48.8825	-18.6236	55.8796	43.1833	-54.0176	20.2845	25.6066	-39.6522	40.098	54.278	-30.648	62.7459	47.6381	-66.953	37.1055	28.172	-49.0333	57.6746	53.2597	-35.4744	73.562	105.432	-54.0389	46.9666	122.263	-51.4829	80.0856	119.026	-17.3518	53.4533	
127	1.05833	101.931	14.8255	69.5451	88.3041	28.0955	43.8283	66.7068	29.5613	18.1448	49.1432	7.44811	5.59731	60.6829	-16.7433	1.66306	29.7989	-8.6816	11.2491	46.0554	0.102126	43.5705	53.1425	-34.0359	4.60518	23.7087	-28.0674	26.9383	48.9728	-16.3319	56.2913	44.3409	-50.3749	19.592	24.0507	-39.0851	43.7483	50.8166	-31.2554	63.1754	42.141	-66.8135	36.6832	28.2417	-45.8051	59.0016	52.7242	-36.1393	76.4917	102.509	-55.5419	47.8384	121.644	-46.1937	82.3765	116.503	-18.3162	58.3635	
128	1.06667	102.074	18.845	71.7226	87.9235	32.8214	47.7896	64.6155	30.013	19.3038	45.682	6.30386	5.75351	58.2485	-12.5255	1.0742	29.3056	-11.642	10.697	42.6227	-1.95041	43.4814	53.6636	-33.7169	6.95036	21.1274	-24.4894	25.7856	46.9864	-14.767	56.8316	41.3278	-49.2043	19.0857	22.0709	-37.6502	42.1395	51.3182	-28.1149	62.1358	41.281	-66.742	38.1245	25.4624	-46.3755	55.3911	48.7813	-34.9694	72.1564	100.177	-54.1246	47.4628	121.429	-49.1554	79.4089	115.279	-16.6753	58.7618	
129	1.075	99.4979	15.7801	70.1143	87.2673	32.5374	45.0747	64.0635	33.4388	17.6549	44.414	9.64238	7.4687	54.3217	-14.6562	2.11442	27.0822	-7.63289	12.1187	42.2615	-0.591088	44.9099	48.2818	-31.8696	5.1908	19.5666	-26.1169	27.6076	44.9869	-12.0451	57.1456	42.0604	-49.0028	20.4599	19.9589	-39.7119	39.5103	49.12	-28.828	63.9807	45.6426	-63.1951	37.6568	24.7215	-46.5892	60.8015	49.9305	-38.0325	77.2225	100.396	-52.2383	48.9698	119.753	-45.0758	81.5646	115.346	-14.7094	56.3642	
130	1.08333	100.323	16.2632	72.7238	85.7382	35.4957	43.7274	62.231	31.1701	18.2294	44.0363	9.25267	11.2984	55.8502	-11.5496	3.46496	26.5294	-4.92405	13.269	40.9397	-1.86028	47.0435	46.0386	-34.5506	7.90791	19.6205	-24.0904	29.2294	41.3797	-14.1667	58.0412	40.1031	-49.6818	22.2706	20.1832	-36.7355	42.8118	49.1908	-26.3381	64.9882	42.1782	-60.4156	37.5467	23.2522	-47.4873	58.0721	49.425	-34.2186	77.8136	100.681	-49.6329	47.8351	118.128	-49.2244	81.0695	112.982	-15.6864	56.4608	
131	1.09167	98.305	16.5121	70.9603	84.2618	36.7927	50.3299	58.3783	35.3493	19.651	41.3689	13.1588	11.2992	56.906	-6.03149	4.11514	24.8069	-4.94324	13.5247	38.7945	4.1471	46.3749	50.3279	-31.5028	9.34256	18.8773	-22.7683	30.0673	43.2959	-15.7874	60.8653	42.0071	-48.5615	23.0406	19.4262	-36.3728	42.5528	48.6328	-27.5329	65.575	42.6491	-61.6175	37.1838	24.5923	-43.8966	59.6965	47.3919	-34.8432	78.7781	100.442	-47.8928	50.038	118.955	-47.1323	75.607	112.594	-14.8203	54.3437	
